/* XPM */
static char *_e2b35ba56b747aee06b8b11d58c884d2OETVlIxPrEKkKmm[] = {
/* columns rows colors chars-per-pixel */
"32 32 3 1 ",
"  c #582f0e",
". c #936639",
"X c #7f4f24",
/* pixels */
"                                ",
" XXXXXXXXXXXXXXXXXXXXXXXXXXXXXX ",
" XX..........................XX ",
" X............................X ",
" X............................X ",
" X............................X ",
" X............................X ",
" X............................X ",
" X............................X ",
" X............................X ",
" X............................X ",
" X............................X ",
" X............................X ",
" X............................X ",
" X............................X ",
" X............................X ",
" X............................X ",
" X............................X ",
" X............................X ",
" X............................X ",
" X............................X ",
" X............................X ",
" X............................X ",
" X............................X ",
" X............................X ",
" X............................X ",
" X............................X ",
" X............................X ",
" X............................X ",
" XX..........................XX ",
" XXXXXXXXXXXXXXXXXXXXXXXXXXXXXX ",
"                                "
};
